# Blender v2.75 (sub 4) OBJ File: ''
# www.blender.org
mtllib ae1b68e078c0941db9573d3567d957f2.mtl
o Mesh2_Series_680_Thermally_Broken_Aliminium_Window_and_Door_Sys
v -0.927717 3.772453 0.087631
v 0.891834 0.178468 0.089838
v 0.891834 3.772453 0.089836
v -0.927717 0.178468 0.087633
vt -20.653700 -3.058900
vt 20.653700 -84.650597
vt 20.653700 -3.058900
vt -20.653700 -84.650597
vn -0.001200 0.000000 1.000000
usemtl Translucent_Glass_Blue.002
s 1
f 1/1/1 2/2/1 3/3/1
f 2/2/1 1/1/1 4/4/1
o Mesh1_Group1_Series_680_Thermally_Broken_Aliminium_Window_a.000
v 0.891888 3.772453 0.045788
v -0.927717 3.772453 0.087631
v 0.891834 3.772453 0.089836
v -0.927664 3.772453 0.043583
v -0.979465 3.811608 0.043521
v 0.943689 3.811608 0.045851
v 0.943689 0.139313 0.045851
v 0.891888 0.178468 0.045789
v -0.979465 0.139313 0.043521
v -0.927664 0.178468 0.043584
v 0.891834 0.178468 0.089838
v -0.927717 0.178468 0.087633
v -0.979518 0.139313 0.087570
v -0.979518 3.811608 0.087569
v 0.943636 3.811608 0.089899
v -0.979358 3.811608 -0.044576
v 0.943796 3.811608 -0.042246
v -1.074944 3.907193 -0.044692
v 1.039381 3.907193 -0.042130
v 0.943796 0.139313 -0.042244
v 1.039381 0.043728 -0.042129
v -1.074944 0.043728 -0.044691
v 1.039220 0.043728 0.090016
v -1.075104 0.043728 0.087454
v 0.943636 0.139313 0.089900
v 1.039220 3.907193 0.090015
v -1.075104 3.907193 0.087453
v -0.979358 0.139313 -0.044575
vt -3.346300 1.000000
vt -44.653702 0.000000
vt -3.346300 0.000000
vt -44.653702 1.000000
vt -3.346300 84.650597
vt -45.830002 85.539497
vt -44.653702 84.650597
vt -2.170000 85.539497
vt -2.170000 2.170000
vt -3.346300 3.058900
vt -45.830002 2.170000
vt -44.653702 3.058900
vt 3.346300 0.000000
vt 44.653702 1.000000
vt 3.346300 1.000000
vt 44.653702 0.000000
vt 84.650597 0.000000
vt 3.058900 1.000000
vt 3.058900 0.000000
vt 84.650597 1.000000
vt -85.539497 1.000000
vt -2.170000 0.000000
vt -2.170000 1.000000
vt -85.539497 0.000000
vt 45.830002 1.000000
vt 2.170000 0.000000
vt 45.830002 0.000000
vt 2.170000 1.000000
vt 45.830002 3.000000
vt 2.170000 3.000000
vt 48.000000 87.709503
vt 2.170000 85.539497
vt 45.830002 85.539497
vt 0.000000 87.709503
vt 2.170000 2.170000
vt 0.000000 0.000000
vt 48.000000 0.000000
vt 48.000000 3.000000
vt 0.000000 3.000000
vt -48.000000 0.000000
vt -48.000000 87.709503
vt -48.000000 3.000000
vt 87.709503 0.000000
vt 87.709503 3.000000
vt -45.830002 0.000000
vt -45.830002 1.000000
vt -2.170000 3.000000
vt -45.830002 3.000000
vt 45.830002 2.170000
vt -85.539497 3.000000
vt 85.539497 1.000000
vt 85.539497 3.000000
vt 85.539497 0.000000
vt -87.709503 3.000000
vt -87.709503 0.000000
vt -84.650597 1.000000
vt -3.058900 0.000000
vt -3.058900 1.000000
vt -84.650597 0.000000
vn 0.000000 1.000000 0.000000
vn -0.001200 0.000000 1.000000
vn 0.000000 -1.000000 0.000000
vn -1.000000 0.000000 -0.001200
vn 1.000000 0.000000 0.001200
vn 0.001200 -0.000000 -1.000000
usemtl FrontColor.020
s 1
f 5/5/2 6/6/2 7/7/2
f 6/6/2 5/5/2 8/8/2
f 5/9/3 9/10/3 8/11/3
f 5/9/3 10/12/3 9/10/3
f 10/12/3 5/9/3 11/13/3
f 12/14/3 11/13/3 5/9/3
f 11/13/3 12/14/3 13/15/3
f 13/15/3 12/14/3 14/16/3
f 15/17/4 14/18/4 12/19/4
f 14/18/4 15/17/4 16/20/4
f 6/21/5 14/22/5 16/23/5
f 14/22/5 6/21/5 8/24/5
f 13/15/3 14/16/3 8/11/3
f 13/15/3 8/11/3 9/10/3
f 9/25/6 17/26/6 13/27/6
f 17/26/6 9/25/6 18/28/6
f 9/29/4 19/30/4 18/31/4
f 19/30/4 9/29/4 10/32/4
f 20/33/4 10/32/4 9/29/4
f 10/32/4 20/33/4 21/34/4
f 22/35/7 21/36/7 20/37/7
f 23/38/7 21/36/7 22/35/7
f 21/36/7 23/38/7 24/39/7
f 25/40/7 24/39/7 23/38/7
f 24/39/7 25/40/7 26/41/7
f 27/40/4 26/42/4 25/43/4
f 26/42/4 27/40/4 28/41/4
f 27/40/3 29/13/3 28/44/3
f 29/13/3 27/40/3 19/12/3
f 30/38/3 19/12/3 27/40/3
f 19/12/3 30/38/3 31/45/3
f 23/43/2 31/44/2 30/40/2
f 31/44/2 23/43/2 22/46/2
f 26/43/5 31/47/5 22/48/5
f 31/47/5 26/43/5 28/40/5
f 17/15/3 31/45/3 28/44/3
f 18/10/3 31/45/3 17/15/3
f 19/12/3 31/45/3 18/10/3
f 28/44/3 29/13/3 17/15/3
f 11/27/2 17/49/2 29/26/2
f 17/49/2 11/27/2 13/50/2
f 24/51/2 13/50/2 11/27/2
f 13/50/2 24/51/2 32/52/2
f 24/39/7 26/41/7 32/53/7
f 32/53/7 26/41/7 20/37/7
f 22/35/7 20/37/7 26/41/7
f 20/54/6 13/27/6 32/51/6
f 13/27/6 20/54/6 9/25/6
f 10/55/5 24/34/5 11/32/5
f 24/34/5 10/55/5 21/56/5
f 11/32/5 19/57/5 10/55/5
f 19/57/5 11/32/5 29/30/5
f 27/40/6 23/58/6 30/59/6
f 23/58/6 27/40/6 25/43/6
f 5/60/6 15/61/6 12/62/6
f 15/61/6 5/60/6 7/63/6
